<svg xmlns="http://www.w3.org/2000/svg" height="40" viewBox="0 -960 960 960" width="40"><path d="M218.461-160q-24.577 0-41.519-16.942Q160-193.884 160-218.461v-523.078q0-24.577 16.942-41.519Q193.884-800 218.461-800h523.078q24.577 0 41.519 16.942Q800-766.116 800-741.539v523.078q0 24.577-16.942 41.519Q766.116-160 741.539-160H218.461Zm0-33.846h523.078q9.231 0 16.923-7.692 7.692-7.692 7.692-16.923v-523.078q0-9.231-7.692-16.923-7.692-7.692-16.923-7.692H218.461q-9.231 0-16.923 7.692-7.692 7.692-7.692 16.923v523.078q0 9.231 7.692 16.923 7.692 7.692 16.923 7.692Zm80.41-105.179h369.078L555.333-448.667l-108 135.539-70.974-86.718-77.488 100.821ZM193.846-193.846v-572.308 572.308Z"/></svg>