<svg xmlns="http://www.w3.org/2000/svg" height="20" viewBox="0 -960 960 960" width="20"><path d="M770.462-652v409.06q0 22.501-15.451 37.951-15.45 15.451-37.906 15.451h-474.21q-22.456 0-37.906-15.451-15.451-15.45-15.451-37.906v-474.21q0-22.456 15.451-37.906 15.45-15.451 37.951-15.451H652L770.462-652Zm-28.924 11.088L640.912-741.538H243.077q-10.769 0-17.692 6.923t-6.923 17.692v473.846q0 10.769 6.923 17.692t17.692 6.923h473.846q10.769 0 17.692-6.923t6.923-17.692v-397.835ZM480-314.769q26.539 0 45.423-18.885 18.885-18.884 18.885-45.423 0-26.538-18.885-45.423-18.884-18.885-45.423-18.885T434.577-424.5q-18.885 18.885-18.885 45.423 0 26.539 18.885 45.423 18.884 18.885 45.423 18.885ZM297.846-561.846h267.385v-100.308H297.846v100.308Zm-79.384-66.066v409.45-523.076 113.626Z"/></svg>