<svg width="31" height="30" viewBox="0 0 31 30" fill="none" xmlns="http://www.w3.org/2000/svg">
<path d="M11.3919 0C14.3471 0 17.1814 1.17398 19.2711 3.26367C21.3608 5.35336 22.5347 8.18759 22.5347 11.1429C22.5347 13.9029 21.5233 16.44 19.8605 18.3943L20.3233 18.8571H21.6776L30.249 27.4286L27.6776 30L19.1062 21.4286V20.0743L18.6433 19.6114C16.689 21.2743 14.1519 22.2857 11.3919 22.2857C8.43661 22.2857 5.60238 21.1117 3.51269 19.022C1.423 16.9324 0.249023 14.0981 0.249023 11.1429C0.249023 8.18759 1.423 5.35336 3.51269 3.26367C5.60238 1.17398 8.43661 0 11.3919 0ZM11.3919 3.42857C7.10617 3.42857 3.67759 6.85714 3.67759 11.1429C3.67759 15.4286 7.10617 18.8571 11.3919 18.8571C15.6776 18.8571 19.1062 15.4286 19.1062 11.1429C19.1062 6.85714 15.6776 3.42857 11.3919 3.42857Z" fill="#17273A"/>
</svg>
